<?xml version="1.0" encoding="iso-8859-1"?>
<!-- Uploaded to: SVG Repo, www.svgrepo.com, Generator: SVG Repo Mixer Tools -->
<svg fill="#808080" height="800px" width="800px" version="1.1" id="Layer_1" xmlns="http://www.w3.org/2000/svg" xmlns:xlink="http://www.w3.org/1999/xlink" 
	 viewBox="0 0 512 512" xml:space="preserve">
<g>
	<g>
		<path d="M490.667,0H21.333C9.552,0,0,9.551,0,21.333v128V384v106.667C0,502.449,9.552,512,21.333,512h469.333
			c11.782,0,21.333-9.551,21.333-21.333V384V149.333v-128C512,9.551,502.45,0,490.667,0z M42.667,170.667h426.666v192H42.667
			V170.667z M469.334,469.333L469.334,469.333H42.667v-64h426.667V469.333z M469.334,128H42.667V42.667h426.667V128z"/>
	</g>
</g>
<g>
	<g>
		<path d="M85.333,64C73.557,64,64,73.557,64,85.333s9.557,21.333,21.333,21.333s21.333-9.557,21.333-21.333S97.109,64,85.333,64z"
			/>
	</g>
</g>
<g>
	<g>
		<path d="M149.333,64C137.557,64,128,73.557,128,85.333s9.557,21.333,21.333,21.333s21.333-9.557,21.333-21.333
			S161.109,64,149.333,64z"/>
	</g>
</g>
<g>
	<g>
		<path d="M213.333,64C201.557,64,192,73.557,192,85.333s9.557,21.333,21.333,21.333s21.333-9.557,21.333-21.333
			S225.109,64,213.333,64z"/>
	</g>
</g>
</svg>