<?xml version="1.0" encoding="UTF-8"?>
<!DOCTYPE svg PUBLIC "-//W3C//DTD SVG 1.1//EN" "http://www.w3.org/Graphics/SVG/1.1/DTD/svg11.dtd">
<svg xmlns="http://www.w3.org/2000/svg" version="1.1" width="34px" height="28px" style="shape-rendering:geometricPrecision; text-rendering:geometricPrecision; image-rendering:optimizeQuality; fill-rule:evenodd; clip-rule:evenodd" xmlns:xlink="http://www.w3.org/1999/xlink">
<g><path style="opacity:0.662" fill="#3a5899" d="M 14.5,-0.5 C 15.8333,-0.5 17.1667,-0.5 18.5,-0.5C 19.2021,2.4398 20.2021,5.27313 21.5,8C 25.1516,8.49863 28.8183,8.6653 32.5,8.5C 32.762,9.97782 32.4287,11.3112 31.5,12.5C 28.864,13.9705 26.364,15.6372 24,17.5C 23.1349,15.1122 23.9683,13.6122 26.5,13C 22.5,12.3333 18.5,12.3333 14.5,13C 16.7538,14.3767 18.9205,15.8767 21,17.5C 21.4922,18.549 21.3256,19.549 20.5,20.5C 23.3155,23.2569 23.9822,22.7569 22.5,19C 23.635,18.2506 24.635,18.4173 25.5,19.5C 26.5084,22.1952 27.5084,24.8619 28.5,27.5C 26.5,27.5 24.5,27.5 22.5,27.5C 21.024,25.5 19.1906,23.8334 17,22.5C 14.648,24.0303 12.4813,25.6969 10.5,27.5C 7.16667,27.5 3.83333,27.5 0.5,27.5C 0.5,26.8333 0.166667,26.5 -0.5,26.5C -0.5,25.5 -0.5,24.5 -0.5,23.5C 1.93268,23.2144 1.93268,22.5477 -0.5,21.5C -0.5,20.8333 -0.5,20.1667 -0.5,19.5C 1.60448,17.0006 3.60448,17.0006 5.5,19.5C 3.52241,20.8028 3.52241,22.4694 5.5,24.5C 7.08626,22.8273 7.75293,20.8273 7.5,18.5C 8.5,18.5 9.5,18.5 10.5,18.5C 7.56718,16.3548 4.56718,14.1882 1.5,12C 0.663368,10.9887 0.330034,9.82207 0.5,8.5C 4.18174,8.6653 7.84841,8.49863 11.5,8C 12.9292,5.31028 13.9292,2.47694 14.5,-0.5 Z M 16.5,5.5 C 19.1003,7.24413 18.9336,8.57747 16,9.5C 15.4209,8.07153 15.5876,6.7382 16.5,5.5 Z M 8.5,13.5 C 9.07683,12.2267 9.7435,12.2267 10.5,13.5C 10.0302,14.463 9.3635,14.463 8.5,13.5 Z M 10.5,18.5 C 13.9505,19.7681 13.7838,21.4348 10,23.5C 10.0187,21.8925 10.1854,20.2259 10.5,18.5 Z"/></g>
</svg>
